<?xml version="1.0" encoding="UTF-8"?>
<svg id="Layer_1" xmlns="http://www.w3.org/2000/svg" width="32" height="32" viewBox="0 0 32 32">
  <defs>
    <style>
      .cls-1 {
        fill: #fff;
      }

      .cls-2 {
        fill: #1943dc;
      }
    </style>
  </defs>
  <rect class="cls-2" x="0" width="32" height="32"/>
  <g>
    <path class="cls-1" d="M24.33,21.58c-.44.58-1,1.06-1.67,1.4-.11.06-.22.11-.33.16-.54.24-1.16.38-1.81.41-.84.04-1.66.06-2.49.07h-.29c-2.28.02-2.42-.03-4.69-.05,0-.06,0-.12,0-.18,0-.58.01-1.15.01-1.72,0-.06,0-.12,0-.18l7.09.07c1.43,0,2.66-.95,3.05-2.32.25-.88.1-1.93-.45-2.67-.15-.18-.3-.37-.48-.53-.18-.15-.37-.28-.58-.39-.24-.12-.51-.2-.79-.22h-.12s0-2.03,0-2.03c1.41-.15,3.2,1.05,3.99,2.63.98,1.95.7,4.07-.44,5.57Z"/>
    <path class="cls-1" d="M19.13,11.77c0-.33-.04-.64-.13-.96-.04-.15-.08-.3-.13-.45-.01-.06-.04-.11-.07-.17-.06-.17-.13-.34-.23-.51-.12-.24-.26-.46-.43-.68-.91-1.2-2.36-1.98-4.03-2.04-2.67-.1-5.14,1.9-5.25,4.53-.07,1.62-.1,3.25-.12,4.88.06,0,.12,0,.18,0,.38,0,.77,0,1.15,0,.23,0,.41.04.55.12.07.04.13.09.18.15.01-1.55.03-3.08.05-4.62.01-1.58,1.31-2.93,2.85-3.01,1.7-.1,3.14,1.01,3.39,2.63.05.27.07.61.07.9v.15c0,.28-.02.49-.02.49h-.01c-.1,0-.64,0-1.3.04-1.59.09-2.86,1.46-2.86,3.09.01,1.69,1.37,3.04,3.07,3.06.35,0,.69-.06,1.01-.15.03-.01.05-.02.06-.02.12-.05.24-.09.35-.16.1-.05.19-.11.29-.17.07-.05.13-.1.19-.14.21-.14.39-.32.54-.53.1-.12.17-.24.25-.37.15-.25.25-.53.31-.82,0-.02.01-.05,0-.06.04-.13.05-.28.05-.42.05-1.58.07-3.16.03-4.73ZM16.96,15.56c0,.14,0,.32,0,.44,0,.11-.01.21-.03.33l-.02.02v.06c-.09.31-.32.53-.64.61-.5.13-.86-.21-.94-.48-.1-.32-.03-.75.3-.91.15-.08.34-.09.53-.09.04,0,.08,0,.12,0l.69.02Z"/>
  </g>
  <rect class="cls-1" x="6.7" y="21.17" width="1.33" height="2.77" rx=".57" ry=".57"/>
  <rect class="cls-1" x="8.49" y="20.08" width="1.33" height="3.86" rx=".57" ry=".57"/>
  <rect class="cls-1" x="10.27" y="18.62" width="1.33" height="5.31" rx=".57" ry=".57"/>
</svg>